<svg xmlns="http://www.w3.org/2000/svg" xmlns:xlink="http://www.w3.org/1999/xlink" width="500" zoomAndPan="magnify" viewBox="0 0 375 374.999991" height="500" preserveAspectRatio="xMidYMid meet" version="1.0"><defs><g/><clipPath id="fa04feb185"><path d="M 105 57 L 314.402344 57 L 314.402344 130 L 105 130 Z M 105 57 " clip-rule="nonzero"/></clipPath><clipPath id="b072674f04"><path d="M 39.152344 96 L 248 96 L 248 169 L 39.152344 169 Z M 39.152344 96 " clip-rule="nonzero"/></clipPath><clipPath id="eba83df640"><path d="M 132 37.5 L 179 37.5 L 179 77 L 132 77 Z M 132 37.5 " clip-rule="nonzero"/></clipPath></defs><g clip-path="url(#fa04feb185)"><path fill="#ffffff" d="M 280.054688 85.421875 L 314.332031 77.839844 L 293.261719 57.628906 L 290.265625 63.9375 C 199.855469 63.785156 123.609375 74.492188 105.734375 129.9375 C 139.09375 82.742188 208.503906 77.902344 283.058594 79.109375 L 280.058594 85.421875 Z M 280.054688 85.421875 " fill-opacity="1" fill-rule="evenodd"/></g><g clip-path="url(#b072674f04)"><path fill="#ffffff" d="M 63.292969 162.5625 C 153.703125 162.714844 229.949219 152.011719 247.820312 96.5625 C 214.460938 143.757812 145.054688 148.597656 70.5 147.390625 L 73.5 141.078125 L 39.222656 148.660156 L 60.292969 168.875 L 63.289062 162.5625 Z M 63.292969 162.5625 " fill-opacity="1" fill-rule="evenodd"/></g><path fill="#1ea589" d="M 121.566406 98.808594 C 142.5 71.46875 189.664062 61.835938 242.914062 56.3125 L 247.894531 43.246094 C 185.339844 50.097656 133.792969 63.230469 121.566406 98.808594 Z M 121.566406 98.808594 " fill-opacity="1" fill-rule="evenodd"/><path fill="#1ea589" d="M 231.988281 127.6875 C 211.054688 155.027344 163.886719 164.660156 110.640625 170.183594 L 105.664062 183.25 C 168.21875 176.398438 219.765625 163.269531 231.992188 127.6875 Z M 231.988281 127.6875 " fill-opacity="1" fill-rule="evenodd"/><g clip-path="url(#eba83df640)"><path fill="#1ea589" d="M 132.546875 76.347656 C 143.296875 62.644531 157.453125 55.796875 173.066406 51.90625 L 178.988281 37.5 C 158.890625 45.929688 140.585938 56.113281 132.546875 76.347656 Z M 132.546875 76.347656 " fill-opacity="1" fill-rule="evenodd"/></g><path fill="#1ea589" d="M 221.007812 150.152344 C 210.257812 163.855469 196.105469 170.703125 180.488281 174.59375 L 174.566406 189 C 194.664062 180.570312 212.96875 170.386719 221.007812 150.152344 Z M 221.007812 150.152344 " fill-opacity="1" fill-rule="evenodd"/><g fill="#ffffff" fill-opacity="1"><g transform="translate(57.608073, 257.674969)"><g><path d="M 47.261719 -40.238281 L 38.230469 -49.066406 C 37.527344 -49.769531 36.625 -50.171875 35.621094 -50.171875 L 4.515625 -50.171875 C 3.710938 -50.171875 3.011719 -49.46875 3.011719 -48.664062 L 3.011719 -1.503906 C 3.011719 -0.703125 3.710938 0 4.515625 0 L 35.320312 0 C 36.523438 0 37.328125 -0.300781 38.230469 -1.203125 L 47.261719 -10.234375 C 47.863281 -10.835938 48.464844 -11.839844 48.464844 -12.84375 L 48.464844 -37.226562 C 48.464844 -38.53125 48.0625 -39.433594 47.261719 -40.238281 Z M 37.929688 -15.453125 C 37.929688 -14.75 37.726562 -14.25 37.226562 -13.746094 L 34.015625 -10.738281 C 33.414062 -10.132812 33.011719 -9.933594 32.511719 -9.933594 L 12.84375 -9.933594 L 12.84375 -40.4375 L 32.410156 -40.4375 C 33.113281 -40.4375 33.613281 -40.238281 34.117188 -39.734375 L 37.125 -36.523438 L 37.628906 -35.921875 C 37.828125 -35.621094 37.929688 -35.320312 37.929688 -34.917969 Z M 37.929688 -15.453125 "/></g></g></g><g fill="#ffffff" fill-opacity="1"><g transform="translate(109.080046, 257.674969)"><g><path d="M 14.25 -36.425781 L 17.460938 -39.433594 C 18.0625 -40.035156 18.460938 -40.238281 18.964844 -40.238281 L 45.453125 -40.238281 C 46.257812 -40.238281 46.960938 -40.9375 46.960938 -41.742188 L 46.960938 -48.664062 C 46.960938 -49.46875 46.257812 -50.171875 45.453125 -50.171875 L 15.453125 -50.171875 C 14.25 -50.171875 13.445312 -49.871094 12.542969 -48.964844 L 4.214844 -40.738281 C 3.613281 -40.136719 3.011719 -39.132812 3.011719 -38.128906 L 3.011719 -12.242188 C 3.011719 -10.9375 3.410156 -10.035156 4.214844 -9.230469 L 12.542969 -1.105469 C 13.246094 -0.402344 14.148438 0 15.152344 0 L 45.453125 0 C 46.257812 0 46.960938 -0.703125 46.960938 -1.503906 L 46.960938 -8.226562 C 46.960938 -9.03125 46.257812 -9.734375 45.453125 -9.734375 L 19.066406 -9.734375 C 18.363281 -9.734375 17.859375 -9.933594 17.359375 -10.433594 L 13.847656 -14.25 C 13.644531 -14.550781 13.546875 -14.851562 13.546875 -15.25 L 13.546875 -20.371094 L 40.539062 -20.371094 C 41.339844 -20.371094 42.042969 -21.070312 42.042969 -21.875 L 42.042969 -28.796875 C 42.042969 -29.601562 41.339844 -30.304688 40.539062 -30.304688 L 13.546875 -30.304688 L 13.546875 -34.71875 C 13.546875 -35.421875 13.746094 -35.921875 14.25 -36.425781 Z M 14.25 -36.425781 "/></g></g></g><g fill="#ffffff" fill-opacity="1"><g transform="translate(159.046995, 257.674969)"><g><path d="M 81.578125 -39.9375 L 72.746094 -48.964844 C 72.046875 -49.769531 71.042969 -50.171875 69.738281 -50.171875 L 51.777344 -50.171875 C 50.472656 -50.171875 49.570312 -49.769531 48.765625 -48.964844 L 43.75 -43.847656 L 38.730469 -48.964844 C 37.929688 -49.769531 37.027344 -50.171875 35.722656 -50.171875 L 15.953125 -50.171875 C 14.648438 -50.171875 13.746094 -49.769531 12.945312 -48.964844 L 4.113281 -39.9375 C 3.511719 -39.234375 3.011719 -38.332031 3.011719 -37.328125 L 3.011719 -1.503906 C 3.011719 -0.703125 3.710938 0 4.515625 0 L 11.238281 0 C 12.039062 0 12.742188 -0.703125 12.742188 -1.503906 L 12.742188 -34.316406 C 12.742188 -35.019531 12.945312 -35.519531 13.445312 -36.023438 L 17.558594 -39.9375 C 17.859375 -40.136719 18.160156 -40.238281 18.5625 -40.238281 L 33.414062 -40.238281 C 33.816406 -40.238281 34.117188 -40.136719 34.417969 -39.9375 L 38.230469 -36.425781 C 38.53125 -36.222656 38.730469 -35.820312 38.832031 -35.519531 L 38.832031 -1.503906 C 38.832031 -0.703125 39.535156 0 40.335938 0 L 47.160156 0 C 47.964844 0 48.664062 -0.703125 48.664062 -1.503906 L 48.664062 -35.519531 C 48.765625 -35.820312 48.964844 -36.222656 49.269531 -36.425781 L 53.082031 -39.9375 C 53.382812 -40.136719 53.683594 -40.238281 54.085938 -40.238281 L 67.429688 -40.238281 C 67.832031 -40.238281 68.132812 -40.136719 68.433594 -39.9375 L 72.246094 -36.222656 C 72.746094 -35.820312 72.949219 -35.21875 72.949219 -34.515625 L 72.949219 -1.503906 C 72.949219 -0.703125 73.652344 0 74.453125 0 L 81.175781 0 C 81.980469 0 82.679688 -0.703125 82.679688 -1.503906 L 82.679688 -37.328125 C 82.679688 -38.332031 82.28125 -39.234375 81.578125 -39.9375 Z M 81.578125 -39.9375 "/></g></g></g><g fill="#ffffff" fill-opacity="1"><g transform="translate(244.733314, 257.674969)"><g><path d="M 3.011719 -12.84375 C 3.011719 -11.839844 3.410156 -10.9375 4.113281 -10.234375 L 12.945312 -1.203125 C 13.746094 -0.402344 14.648438 0 15.953125 0 L 35.519531 0 C 36.824219 0 37.726562 -0.402344 38.53125 -1.203125 L 47.359375 -10.234375 C 48.0625 -10.9375 48.464844 -11.839844 48.464844 -12.84375 L 48.464844 -37.328125 C 48.464844 -38.332031 48.0625 -39.234375 47.359375 -39.9375 L 38.53125 -48.964844 C 37.726562 -49.769531 36.824219 -50.171875 35.519531 -50.171875 L 15.953125 -50.171875 C 14.648438 -50.171875 13.746094 -49.769531 12.945312 -48.964844 L 4.113281 -39.9375 C 3.410156 -39.234375 3.011719 -38.332031 3.011719 -37.328125 Z M 12.742188 -15.453125 L 12.742188 -34.71875 C 12.742188 -35.421875 12.945312 -35.921875 13.445312 -36.425781 L 16.65625 -39.433594 L 17.257812 -39.9375 C 17.460938 -40.136719 17.761719 -40.238281 18.261719 -40.238281 L 33.214844 -40.238281 C 33.613281 -40.238281 33.914062 -40.136719 34.214844 -39.9375 L 34.820312 -39.433594 L 38.03125 -36.425781 C 38.53125 -35.921875 38.730469 -35.421875 38.730469 -34.71875 L 38.730469 -15.453125 C 38.730469 -14.75 38.53125 -14.25 38.03125 -13.746094 L 34.820312 -10.738281 L 34.214844 -10.234375 C 33.914062 -10.035156 33.613281 -9.933594 33.214844 -9.933594 L 18.261719 -9.933594 C 17.761719 -9.933594 17.460938 -10.035156 17.257812 -10.234375 L 16.65625 -10.738281 L 13.445312 -13.746094 C 12.945312 -14.25 12.742188 -14.75 12.742188 -15.453125 Z M 12.742188 -15.453125 "/></g></g></g><g fill="#ffffff" fill-opacity="1"><g transform="translate(53.529191, 299.131921)"><g><path d="M 16.453125 -17.625 L 10.03125 -17.625 L 10.03125 0 L 7.0625 0 L 7.0625 -17.625 L 0.703125 -17.625 L 0.703125 -20.234375 L 16.453125 -20.234375 Z M 16.453125 -17.625 "/></g></g></g><g fill="#ffffff" fill-opacity="1"><g transform="translate(71.993547, 299.131921)"><g><path d="M 17.21875 -20.234375 L 17.21875 -7.796875 C 17.21875 -4.828125 16.664062 -2.722656 15.5625 -1.484375 C 14.457031 -0.242188 12.566406 0.375 9.890625 0.375 C 7.128906 0.375 5.175781 -0.242188 4.03125 -1.484375 C 2.882812 -2.722656 2.3125 -4.828125 2.3125 -7.796875 L 2.3125 -20.234375 L 5.25 -20.234375 L 5.25 -7.796875 C 5.25 -5.722656 5.582031 -4.273438 6.25 -3.453125 C 6.914062 -2.640625 8.085938 -2.234375 9.765625 -2.234375 C 11.429688 -2.234375 12.597656 -2.640625 13.265625 -3.453125 C 13.941406 -4.273438 14.28125 -5.722656 14.28125 -7.796875 L 14.28125 -20.234375 Z M 17.21875 -20.234375 "/></g></g></g><g fill="#ffffff" fill-opacity="1"><g transform="translate(92.861069, 299.131921)"><g/></g></g><g fill="#ffffff" fill-opacity="1"><g transform="translate(100.716341, 299.131921)"><g><path d="M 18.5625 -20.234375 L 21.765625 -20.234375 C 22.523438 -20.234375 22.925781 -19.832031 22.96875 -19.03125 L 23.78125 0 L 20.859375 0 L 20.140625 -17.796875 L 19.5625 -17.796875 L 15.453125 -3.40625 C 15.273438 -2.738281 14.851562 -2.40625 14.1875 -2.40625 L 11.640625 -2.40625 C 10.953125 -2.40625 10.523438 -2.738281 10.359375 -3.40625 L 6.21875 -17.796875 L 5.65625 -17.796875 L 4.984375 0 L 2.078125 0 L 2.84375 -19.03125 C 2.882812 -19.832031 3.285156 -20.234375 4.046875 -20.234375 L 7.296875 -20.234375 C 7.910156 -20.234375 8.320312 -19.898438 8.53125 -19.234375 L 11.96875 -7.390625 C 12.164062 -6.679688 12.390625 -5.769531 12.640625 -4.65625 L 13.171875 -4.65625 C 13.398438 -5.695312 13.632812 -6.617188 13.875 -7.421875 L 17.28125 -19.234375 C 17.488281 -19.898438 17.914062 -20.234375 18.5625 -20.234375 Z M 18.5625 -20.234375 "/></g></g></g><g fill="#ffffff" fill-opacity="1"><g transform="translate(127.884852, 299.131921)"><g><path d="M 13.203125 -6.09375 L 5.125 -6.09375 L 3.25 0 L 0.265625 0 L 6.59375 -19.4375 C 6.75 -19.96875 7.113281 -20.234375 7.6875 -20.234375 L 10.671875 -20.234375 C 11.265625 -20.234375 11.617188 -19.96875 11.734375 -19.4375 L 18.09375 0 L 15.078125 0 Z M 12.4375 -8.65625 L 10.0625 -16.328125 C 10 -16.503906 9.914062 -16.78125 9.8125 -17.15625 C 9.707031 -17.53125 9.625 -17.804688 9.5625 -17.984375 L 8.765625 -17.984375 L 8.296875 -16.328125 L 5.921875 -8.65625 Z M 12.4375 -8.65625 "/></g></g></g><g fill="#ffffff" fill-opacity="1"><g transform="translate(147.580107, 299.131921)"><g><path d="M 16.953125 0 L 13.8125 0 L 12.078125 -6.3125 C 11.648438 -7.65625 10.800781 -8.328125 9.53125 -8.328125 L 5.359375 -8.359375 L 5.359375 0 L 2.46875 0 L 2.46875 -20.234375 C 4.125 -20.410156 6.476562 -20.5 9.53125 -20.5 C 11.976562 -20.5 13.703125 -20.078125 14.703125 -19.234375 C 15.710938 -18.398438 16.21875 -16.867188 16.21875 -14.640625 C 16.21875 -13.015625 15.925781 -11.789062 15.34375 -10.96875 C 14.769531 -10.144531 13.820312 -9.644531 12.5 -9.46875 L 12.5 -9.328125 C 13.800781 -8.929688 14.648438 -7.953125 15.046875 -6.390625 Z M 5.359375 -10.84375 L 9.46875 -10.84375 C 10.914062 -10.863281 11.90625 -11.125 12.4375 -11.625 C 12.976562 -12.125 13.25 -13.066406 13.25 -14.453125 C 13.25 -15.828125 12.976562 -16.757812 12.4375 -17.25 C 11.90625 -17.738281 10.914062 -17.984375 9.46875 -17.984375 C 7.476562 -17.984375 6.109375 -17.972656 5.359375 -17.953125 Z M 5.359375 -10.84375 "/></g></g></g><g fill="#ffffff" fill-opacity="1"><g transform="translate(167.099508, 299.131921)"><g><path d="M 15.453125 -2.578125 L 15.75 -0.359375 C 14.125 0.117188 12.117188 0.359375 9.734375 0.359375 C 6.785156 0.359375 4.710938 -0.421875 3.515625 -1.984375 C 2.328125 -3.554688 1.734375 -6.265625 1.734375 -10.109375 C 1.734375 -13.960938 2.328125 -16.671875 3.515625 -18.234375 C 4.710938 -19.804688 6.785156 -20.59375 9.734375 -20.59375 C 11.847656 -20.59375 13.71875 -20.394531 15.34375 -20 L 15.046875 -17.75 C 13.484375 -17.90625 11.710938 -17.984375 9.734375 -17.984375 C 7.878906 -17.984375 6.59375 -17.414062 5.875 -16.28125 C 5.164062 -15.144531 4.8125 -13.085938 4.8125 -10.109375 C 4.8125 -7.140625 5.164062 -5.085938 5.875 -3.953125 C 6.59375 -2.828125 7.878906 -2.265625 9.734375 -2.265625 C 12.222656 -2.265625 14.128906 -2.367188 15.453125 -2.578125 Z M 15.453125 -2.578125 "/></g></g></g><g fill="#ffffff" fill-opacity="1"><g transform="translate(185.212174, 299.131921)"><g><path d="M 13.203125 -6.09375 L 5.125 -6.09375 L 3.25 0 L 0.265625 0 L 6.59375 -19.4375 C 6.75 -19.96875 7.113281 -20.234375 7.6875 -20.234375 L 10.671875 -20.234375 C 11.265625 -20.234375 11.617188 -19.96875 11.734375 -19.4375 L 18.09375 0 L 15.078125 0 Z M 12.4375 -8.65625 L 10.0625 -16.328125 C 10 -16.503906 9.914062 -16.78125 9.8125 -17.15625 C 9.707031 -17.53125 9.625 -17.804688 9.5625 -17.984375 L 8.765625 -17.984375 L 8.296875 -16.328125 L 5.921875 -8.65625 Z M 12.4375 -8.65625 "/></g></g></g><g fill="#ffffff" fill-opacity="1"><g transform="translate(204.907429, 299.131921)"><g/></g></g><g fill="#ffffff" fill-opacity="1"><g transform="translate(212.762696, 299.131921)"><g><path d="M 13.203125 -6.09375 L 5.125 -6.09375 L 3.25 0 L 0.265625 0 L 6.59375 -19.4375 C 6.75 -19.96875 7.113281 -20.234375 7.6875 -20.234375 L 10.671875 -20.234375 C 11.265625 -20.234375 11.617188 -19.96875 11.734375 -19.4375 L 18.09375 0 L 15.078125 0 Z M 12.4375 -8.65625 L 10.0625 -16.328125 C 10 -16.503906 9.914062 -16.78125 9.8125 -17.15625 C 9.707031 -17.53125 9.625 -17.804688 9.5625 -17.984375 L 8.765625 -17.984375 L 8.296875 -16.328125 L 5.921875 -8.65625 Z M 12.4375 -8.65625 "/></g></g></g><g fill="#ffffff" fill-opacity="1"><g transform="translate(232.457961, 299.131921)"><g><path d="M 9.828125 -20.625 C 12.835938 -20.625 14.9375 -19.859375 16.125 -18.328125 C 17.320312 -16.804688 17.921875 -14.066406 17.921875 -10.109375 C 17.921875 -6.160156 17.320312 -3.425781 16.125 -1.90625 C 14.9375 -0.382812 12.835938 0.375 9.828125 0.375 C 6.835938 0.375 4.738281 -0.382812 3.53125 -1.90625 C 2.332031 -3.425781 1.734375 -6.160156 1.734375 -10.109375 C 1.734375 -14.066406 2.332031 -16.804688 3.53125 -18.328125 C 4.738281 -19.859375 6.835938 -20.625 9.828125 -20.625 Z M 13.75 -16.296875 C 13.03125 -17.429688 11.722656 -18 9.828125 -18 C 7.929688 -18 6.625 -17.429688 5.90625 -16.296875 C 5.195312 -15.171875 4.84375 -13.109375 4.84375 -10.109375 C 4.84375 -7.117188 5.195312 -5.054688 5.90625 -3.921875 C 6.625 -2.796875 7.929688 -2.234375 9.828125 -2.234375 C 11.722656 -2.234375 13.03125 -2.796875 13.75 -3.921875 C 14.476562 -5.054688 14.84375 -7.117188 14.84375 -10.109375 C 14.84375 -13.109375 14.476562 -15.171875 13.75 -16.296875 Z M 7.796875 2.984375 L 8.59375 1.203125 C 10.914062 2.097656 13.582031 2.765625 16.59375 3.203125 L 15.65625 6.125 C 13.15625 5.601562 10.535156 4.554688 7.796875 2.984375 Z M 7.796875 2.984375 "/></g></g></g><g fill="#ffffff" fill-opacity="1"><g transform="translate(253.472035, 299.131921)"><g><path d="M 17.21875 -20.234375 L 17.21875 -7.796875 C 17.21875 -4.828125 16.664062 -2.722656 15.5625 -1.484375 C 14.457031 -0.242188 12.566406 0.375 9.890625 0.375 C 7.128906 0.375 5.175781 -0.242188 4.03125 -1.484375 C 2.882812 -2.722656 2.3125 -4.828125 2.3125 -7.796875 L 2.3125 -20.234375 L 5.25 -20.234375 L 5.25 -7.796875 C 5.25 -5.722656 5.582031 -4.273438 6.25 -3.453125 C 6.914062 -2.640625 8.085938 -2.234375 9.765625 -2.234375 C 11.429688 -2.234375 12.597656 -2.640625 13.265625 -3.453125 C 13.941406 -4.273438 14.28125 -5.722656 14.28125 -7.796875 L 14.28125 -20.234375 Z M 17.21875 -20.234375 "/></g></g></g><g fill="#ffffff" fill-opacity="1"><g transform="translate(274.339564, 299.131921)"><g><path d="M 5.390625 0 L 2.46875 0 L 2.46875 -20.234375 L 5.390625 -20.234375 Z M 5.390625 0 "/></g></g></g></svg>