<svg xmlns="http://www.w3.org/2000/svg" xmlns:xlink="http://www.w3.org/1999/xlink" width="500" zoomAndPan="magnify" viewBox="0 0 375 374.999991" height="500" preserveAspectRatio="xMidYMid meet" version="1.0"><defs><g/><clipPath id="84363f709b"><path d="M 113 74 L 330.5 74 L 330.5 150 L 113 150 Z M 113 74 " clip-rule="nonzero"/></clipPath><clipPath id="25b635a172"><path d="M 44.75 114 L 262 114 L 262 191 L 44.75 191 Z M 44.75 114 " clip-rule="nonzero"/></clipPath><clipPath id="d2c2fefb56"><path d="M 141 53.503906 L 190 53.503906 L 190 94 L 141 94 Z M 141 53.503906 " clip-rule="nonzero"/></clipPath><clipPath id="325ad29312"><path d="M 185 170 L 234 170 L 234 211.003906 L 185 211.003906 Z M 185 170 " clip-rule="nonzero"/></clipPath></defs><rect x="-37.5" width="450" fill="#ffffff" y="-37.499999" height="449.999989" fill-opacity="1"/><rect x="-37.5" width="450" fill="#ffffff" y="-37.499999" height="449.999989" fill-opacity="1"/><rect x="-37.5" width="450" fill="#f8f8f8" y="-37.499999" height="449.999989" fill-opacity="1"/><g clip-path="url(#84363f709b)"><path fill="#2f323f" d="M 294.84375 103.324219 L 330.433594 95.445312 L 308.558594 74.433594 L 305.445312 80.992188 C 211.582031 80.832031 132.421875 91.960938 113.867188 149.605469 C 148.503906 100.539062 220.5625 95.507812 297.964844 96.765625 L 294.847656 103.324219 Z M 294.84375 103.324219 " fill-opacity="1" fill-rule="evenodd"/></g><g clip-path="url(#25b635a172)"><path fill="#2f323f" d="M 69.804688 183.519531 C 163.667969 183.679688 242.828125 172.550781 261.382812 114.90625 C 226.746094 163.972656 154.6875 169.003906 77.285156 167.746094 L 80.402344 161.1875 L 44.8125 169.066406 L 66.6875 190.082031 L 69.800781 183.523438 Z M 69.804688 183.519531 " fill-opacity="1" fill-rule="evenodd"/></g><path fill="#1ea589" d="M 130.304688 117.242188 C 152.039062 88.820312 201.003906 78.804688 256.285156 73.0625 L 261.457031 59.480469 C 196.511719 66.601562 142.996094 80.253906 130.304688 117.242188 Z M 130.304688 117.242188 " fill-opacity="1" fill-rule="evenodd"/><path fill="#1ea589" d="M 244.941406 147.265625 C 223.207031 175.6875 174.242188 185.703125 118.960938 191.445312 L 113.792969 205.027344 C 178.738281 197.90625 232.253906 184.253906 244.945312 147.265625 Z M 244.941406 147.265625 " fill-opacity="1" fill-rule="evenodd"/><g clip-path="url(#d2c2fefb56)"><path fill="#1ea589" d="M 141.703125 93.890625 C 152.863281 79.644531 167.558594 72.527344 183.769531 68.480469 L 189.917969 53.503906 C 169.054688 62.269531 150.050781 72.855469 141.703125 93.890625 Z M 141.703125 93.890625 " fill-opacity="1" fill-rule="evenodd"/></g><g clip-path="url(#325ad29312)"><path fill="#1ea589" d="M 233.542969 170.617188 C 222.382812 184.863281 207.691406 191.984375 191.476562 196.03125 L 185.328125 211.003906 C 206.191406 202.242188 225.195312 191.65625 233.542969 170.617188 Z M 233.542969 170.617188 " fill-opacity="1" fill-rule="evenodd"/></g><g fill="#292828" fill-opacity="1"><g transform="translate(63.87485, 281.682484)"><g><path d="M 48.976562 -41.699219 L 39.621094 -50.851562 C 38.890625 -51.578125 37.957031 -51.992188 36.914062 -51.992188 L 4.679688 -51.992188 C 3.847656 -51.992188 3.121094 -51.265625 3.121094 -50.433594 L 3.121094 -1.558594 C 3.121094 -0.726562 3.847656 0 4.679688 0 L 36.605469 0 C 37.851562 0 38.683594 -0.3125 39.621094 -1.246094 L 48.976562 -10.605469 C 49.601562 -11.230469 50.226562 -12.269531 50.226562 -13.308594 L 50.226562 -38.578125 C 50.226562 -39.929688 49.808594 -40.867188 48.976562 -41.699219 Z M 39.308594 -16.015625 C 39.308594 -15.285156 39.097656 -14.765625 38.578125 -14.246094 L 35.253906 -11.125 C 34.628906 -10.503906 34.210938 -10.292969 33.691406 -10.292969 L 13.308594 -10.292969 L 13.308594 -41.90625 L 33.589844 -41.90625 C 34.316406 -41.90625 34.835938 -41.699219 35.355469 -41.179688 L 38.476562 -37.851562 L 38.996094 -37.226562 C 39.203125 -36.914062 39.308594 -36.605469 39.308594 -36.1875 Z M 39.308594 -16.015625 "/></g></g></g><g fill="#292828" fill-opacity="1"><g transform="translate(117.217481, 281.682484)"><g><path d="M 14.765625 -37.746094 L 18.09375 -40.867188 C 18.71875 -41.492188 19.132812 -41.699219 19.652344 -41.699219 L 47.105469 -41.699219 C 47.9375 -41.699219 48.667969 -42.425781 48.667969 -43.257812 L 48.667969 -50.433594 C 48.667969 -51.265625 47.9375 -51.992188 47.105469 -51.992188 L 16.015625 -51.992188 C 14.765625 -51.992188 13.933594 -51.683594 13 -50.746094 L 4.367188 -42.21875 C 3.742188 -41.59375 3.121094 -40.554688 3.121094 -39.515625 L 3.121094 -12.6875 C 3.121094 -11.335938 3.535156 -10.398438 4.367188 -9.566406 L 13 -1.144531 C 13.726562 -0.414062 14.664062 0 15.703125 0 L 47.105469 0 C 47.9375 0 48.667969 -0.726562 48.667969 -1.558594 L 48.667969 -8.527344 C 48.667969 -9.359375 47.9375 -10.085938 47.105469 -10.085938 L 19.757812 -10.085938 C 19.03125 -10.085938 18.511719 -10.292969 17.988281 -10.816406 L 14.351562 -14.765625 C 14.140625 -15.078125 14.039062 -15.390625 14.039062 -15.804688 L 14.039062 -21.109375 L 42.011719 -21.109375 C 42.84375 -21.109375 43.570312 -21.835938 43.570312 -22.667969 L 43.570312 -29.84375 C 43.570312 -30.675781 42.84375 -31.40625 42.011719 -31.40625 L 14.039062 -31.40625 L 14.039062 -35.980469 C 14.039062 -36.707031 14.246094 -37.226562 14.765625 -37.746094 Z M 14.765625 -37.746094 "/></g></g></g><g fill="#292828" fill-opacity="1"><g transform="translate(169.000391, 281.682484)"><g><path d="M 84.542969 -41.386719 L 75.390625 -50.746094 C 74.664062 -51.578125 73.625 -51.992188 72.273438 -51.992188 L 53.65625 -51.992188 C 52.304688 -51.992188 51.371094 -51.578125 50.539062 -50.746094 L 45.339844 -45.441406 L 40.140625 -50.746094 C 39.308594 -51.578125 38.371094 -51.992188 37.019531 -51.992188 L 16.535156 -51.992188 C 15.183594 -51.992188 14.246094 -51.578125 13.414062 -50.746094 L 4.261719 -41.386719 C 3.640625 -40.660156 3.121094 -39.722656 3.121094 -38.683594 L 3.121094 -1.558594 C 3.121094 -0.726562 3.847656 0 4.679688 0 L 11.648438 0 C 12.480469 0 13.207031 -0.726562 13.207031 -1.558594 L 13.207031 -35.5625 C 13.207031 -36.292969 13.414062 -36.8125 13.933594 -37.332031 L 18.199219 -41.386719 C 18.511719 -41.59375 18.820312 -41.699219 19.238281 -41.699219 L 34.628906 -41.699219 C 35.042969 -41.699219 35.355469 -41.59375 35.667969 -41.386719 L 39.621094 -37.746094 C 39.929688 -37.539062 40.140625 -37.125 40.242188 -36.8125 L 40.242188 -1.558594 C 40.242188 -0.726562 40.972656 0 41.804688 0 L 48.875 0 C 49.707031 0 50.433594 -0.726562 50.433594 -1.558594 L 50.433594 -36.8125 C 50.539062 -37.125 50.746094 -37.539062 51.058594 -37.746094 L 55.007812 -41.386719 C 55.320312 -41.59375 55.632812 -41.699219 56.050781 -41.699219 L 69.878906 -41.699219 C 70.296875 -41.699219 70.609375 -41.59375 70.917969 -41.386719 L 74.871094 -37.539062 C 75.390625 -37.125 75.597656 -36.5 75.597656 -35.773438 L 75.597656 -1.558594 C 75.597656 -0.726562 76.328125 0 77.160156 0 L 84.125 0 C 84.957031 0 85.6875 -0.726562 85.6875 -1.558594 L 85.6875 -38.683594 C 85.6875 -39.722656 85.269531 -40.660156 84.542969 -41.386719 Z M 84.542969 -41.386719 "/></g></g></g><g fill="#292828" fill-opacity="1"><g transform="translate(257.800828, 281.682484)"><g><path d="M 3.121094 -13.308594 C 3.121094 -12.269531 3.535156 -11.335938 4.261719 -10.605469 L 13.414062 -1.246094 C 14.246094 -0.414062 15.183594 0 16.535156 0 L 36.8125 0 C 38.164062 0 39.097656 -0.414062 39.929688 -1.246094 L 49.082031 -10.605469 C 49.808594 -11.335938 50.226562 -12.269531 50.226562 -13.308594 L 50.226562 -38.683594 C 50.226562 -39.722656 49.808594 -40.660156 49.082031 -41.386719 L 39.929688 -50.746094 C 39.097656 -51.578125 38.164062 -51.992188 36.8125 -51.992188 L 16.535156 -51.992188 C 15.183594 -51.992188 14.246094 -51.578125 13.414062 -50.746094 L 4.261719 -41.386719 C 3.535156 -40.660156 3.121094 -39.722656 3.121094 -38.683594 Z M 13.207031 -16.015625 L 13.207031 -35.980469 C 13.207031 -36.707031 13.414062 -37.226562 13.933594 -37.746094 L 17.261719 -40.867188 L 17.886719 -41.386719 C 18.09375 -41.59375 18.40625 -41.699219 18.925781 -41.699219 L 34.421875 -41.699219 C 34.835938 -41.699219 35.148438 -41.59375 35.460938 -41.386719 L 36.082031 -40.867188 L 39.410156 -37.746094 C 39.929688 -37.226562 40.140625 -36.707031 40.140625 -35.980469 L 40.140625 -16.015625 C 40.140625 -15.285156 39.929688 -14.765625 39.410156 -14.246094 L 36.082031 -11.125 L 35.460938 -10.605469 C 35.148438 -10.398438 34.835938 -10.292969 34.421875 -10.292969 L 18.925781 -10.292969 C 18.40625 -10.292969 18.09375 -10.398438 17.886719 -10.605469 L 17.261719 -11.125 L 13.933594 -14.246094 C 13.414062 -14.765625 13.207031 -15.285156 13.207031 -16.015625 Z M 13.207031 -16.015625 "/></g></g></g><g fill="#292828" fill-opacity="1"><g transform="translate(59.647747, 324.646133)"><g><path d="M 17.046875 -18.265625 L 10.390625 -18.265625 L 10.390625 0 L 7.328125 0 L 7.328125 -18.265625 L 0.734375 -18.265625 L 0.734375 -20.96875 L 17.046875 -20.96875 Z M 17.046875 -18.265625 "/></g></g></g><g fill="#292828" fill-opacity="1"><g transform="translate(78.783159, 324.646133)"><g><path d="M 17.84375 -20.96875 L 17.84375 -8.078125 C 17.84375 -5.003906 17.269531 -2.820312 16.125 -1.53125 C 14.976562 -0.25 13.015625 0.390625 10.234375 0.390625 C 7.378906 0.390625 5.359375 -0.25 4.171875 -1.53125 C 2.992188 -2.820312 2.40625 -5.003906 2.40625 -8.078125 L 2.40625 -20.96875 L 5.4375 -20.96875 L 5.4375 -8.078125 C 5.4375 -5.929688 5.78125 -4.429688 6.46875 -3.578125 C 7.15625 -2.734375 8.375 -2.3125 10.125 -2.3125 C 11.84375 -2.3125 13.050781 -2.734375 13.75 -3.578125 C 14.445312 -4.429688 14.796875 -5.929688 14.796875 -8.078125 L 14.796875 -20.96875 Z M 17.84375 -20.96875 "/></g></g></g><g fill="#292828" fill-opacity="1"><g transform="translate(100.409074, 324.646133)"><g/></g></g><g fill="#292828" fill-opacity="1"><g transform="translate(108.549833, 324.646133)"><g><path d="M 19.234375 -20.96875 L 22.546875 -20.96875 C 23.335938 -20.96875 23.753906 -20.550781 23.796875 -19.71875 L 24.640625 0 L 21.609375 0 L 20.875 -18.453125 L 20.265625 -18.453125 L 16.015625 -3.53125 C 15.835938 -2.832031 15.398438 -2.484375 14.703125 -2.484375 L 12.0625 -2.484375 C 11.351562 -2.484375 10.910156 -2.832031 10.734375 -3.53125 L 6.4375 -18.453125 L 5.859375 -18.453125 L 5.171875 0 L 2.15625 0 L 2.953125 -19.71875 C 2.992188 -20.550781 3.40625 -20.96875 4.1875 -20.96875 L 7.5625 -20.96875 C 8.195312 -20.96875 8.625 -20.625 8.84375 -19.9375 L 12.40625 -7.65625 C 12.601562 -6.925781 12.832031 -5.984375 13.09375 -4.828125 L 13.640625 -4.828125 C 13.890625 -5.898438 14.132812 -6.851562 14.375 -7.6875 L 17.90625 -19.9375 C 18.125 -20.625 18.566406 -20.96875 19.234375 -20.96875 Z M 19.234375 -20.96875 "/></g></g></g><g fill="#292828" fill-opacity="1"><g transform="translate(136.705737, 324.646133)"><g><path d="M 13.671875 -6.328125 L 5.3125 -6.328125 L 3.375 0 L 0.28125 0 L 6.84375 -20.15625 C 7 -20.695312 7.375 -20.96875 7.96875 -20.96875 L 11.0625 -20.96875 C 11.664062 -20.96875 12.03125 -20.695312 12.15625 -20.15625 L 18.75 0 L 15.625 0 Z M 12.890625 -8.96875 L 10.421875 -16.921875 C 10.359375 -17.109375 10.269531 -17.394531 10.15625 -17.78125 C 10.050781 -18.164062 9.96875 -18.445312 9.90625 -18.625 L 9.09375 -18.625 L 8.59375 -16.921875 L 6.140625 -8.96875 Z M 12.890625 -8.96875 "/></g></g></g><g fill="#292828" fill-opacity="1"><g transform="translate(157.116782, 324.646133)"><g><path d="M 17.5625 0 L 14.3125 0 L 12.515625 -6.53125 C 12.078125 -7.925781 11.195312 -8.625 9.875 -8.625 L 5.5625 -8.65625 L 5.5625 0 L 2.546875 0 L 2.546875 -20.96875 C 4.273438 -21.15625 6.71875 -21.25 9.875 -21.25 C 12.40625 -21.25 14.191406 -20.8125 15.234375 -19.9375 C 16.285156 -19.0625 16.8125 -17.472656 16.8125 -15.171875 C 16.8125 -13.484375 16.507812 -12.210938 15.90625 -11.359375 C 15.3125 -10.515625 14.328125 -10 12.953125 -9.8125 L 12.953125 -9.671875 C 14.304688 -9.265625 15.1875 -8.25 15.59375 -6.625 Z M 5.5625 -11.25 L 9.8125 -11.25 C 11.3125 -11.269531 12.335938 -11.535156 12.890625 -12.046875 C 13.453125 -12.566406 13.734375 -13.546875 13.734375 -14.984375 C 13.734375 -16.398438 13.453125 -17.359375 12.890625 -17.859375 C 12.335938 -18.367188 11.3125 -18.625 9.8125 -18.625 C 7.75 -18.625 6.332031 -18.613281 5.5625 -18.59375 Z M 5.5625 -11.25 "/></g></g></g><g fill="#292828" fill-opacity="1"><g transform="translate(177.345583, 324.646133)"><g><path d="M 16.015625 -2.671875 L 16.3125 -0.359375 C 14.632812 0.117188 12.5625 0.359375 10.09375 0.359375 C 7.03125 0.359375 4.878906 -0.445312 3.640625 -2.0625 C 2.410156 -3.6875 1.796875 -6.492188 1.796875 -10.484375 C 1.796875 -14.472656 2.410156 -17.273438 3.640625 -18.890625 C 4.878906 -20.515625 7.03125 -21.328125 10.09375 -21.328125 C 12.28125 -21.328125 14.210938 -21.125 15.890625 -20.71875 L 15.59375 -18.390625 C 13.96875 -18.546875 12.132812 -18.625 10.09375 -18.625 C 8.164062 -18.625 6.832031 -18.035156 6.09375 -16.859375 C 5.351562 -15.691406 4.984375 -13.566406 4.984375 -10.484375 C 4.984375 -7.398438 5.351562 -5.269531 6.09375 -4.09375 C 6.832031 -2.925781 8.164062 -2.34375 10.09375 -2.34375 C 12.664062 -2.34375 14.640625 -2.453125 16.015625 -2.671875 Z M 16.015625 -2.671875 "/></g></g></g><g fill="#292828" fill-opacity="1"><g transform="translate(196.116522, 324.646133)"><g><path d="M 13.671875 -6.328125 L 5.3125 -6.328125 L 3.375 0 L 0.28125 0 L 6.84375 -20.15625 C 7 -20.695312 7.375 -20.96875 7.96875 -20.96875 L 11.0625 -20.96875 C 11.664062 -20.96875 12.03125 -20.695312 12.15625 -20.15625 L 18.75 0 L 15.625 0 Z M 12.890625 -8.96875 L 10.421875 -16.921875 C 10.359375 -17.109375 10.269531 -17.394531 10.15625 -17.78125 C 10.050781 -18.164062 9.96875 -18.445312 9.90625 -18.625 L 9.09375 -18.625 L 8.59375 -16.921875 L 6.140625 -8.96875 Z M 12.890625 -8.96875 "/></g></g></g><g fill="#292828" fill-opacity="1"><g transform="translate(216.527567, 324.646133)"><g/></g></g><g fill="#292828" fill-opacity="1"><g transform="translate(224.668321, 324.646133)"><g><path d="M 13.671875 -6.328125 L 5.3125 -6.328125 L 3.375 0 L 0.28125 0 L 6.84375 -20.15625 C 7 -20.695312 7.375 -20.96875 7.96875 -20.96875 L 11.0625 -20.96875 C 11.664062 -20.96875 12.03125 -20.695312 12.15625 -20.15625 L 18.75 0 L 15.625 0 Z M 12.890625 -8.96875 L 10.421875 -16.921875 C 10.359375 -17.109375 10.269531 -17.394531 10.15625 -17.78125 C 10.050781 -18.164062 9.96875 -18.445312 9.90625 -18.625 L 9.09375 -18.625 L 8.59375 -16.921875 L 6.140625 -8.96875 Z M 12.890625 -8.96875 "/></g></g></g><g fill="#292828" fill-opacity="1"><g transform="translate(245.079377, 324.646133)"><g><path d="M 10.1875 -21.359375 C 13.300781 -21.359375 15.472656 -20.566406 16.703125 -18.984375 C 17.941406 -17.410156 18.5625 -14.578125 18.5625 -10.484375 C 18.5625 -6.390625 17.941406 -3.550781 16.703125 -1.96875 C 15.472656 -0.394531 13.300781 0.390625 10.1875 0.390625 C 7.082031 0.390625 4.90625 -0.394531 3.65625 -1.96875 C 2.414062 -3.550781 1.796875 -6.390625 1.796875 -10.484375 C 1.796875 -14.578125 2.414062 -17.410156 3.65625 -18.984375 C 4.90625 -20.566406 7.082031 -21.359375 10.1875 -21.359375 Z M 14.25 -16.890625 C 13.5 -18.066406 12.140625 -18.65625 10.171875 -18.65625 C 8.210938 -18.65625 6.863281 -18.066406 6.125 -16.890625 C 5.382812 -15.722656 5.015625 -13.585938 5.015625 -10.484375 C 5.015625 -7.378906 5.382812 -5.238281 6.125 -4.0625 C 6.863281 -2.894531 8.210938 -2.3125 10.171875 -2.3125 C 12.140625 -2.3125 13.5 -2.894531 14.25 -4.0625 C 15 -5.238281 15.375 -7.378906 15.375 -10.484375 C 15.375 -13.585938 15 -15.722656 14.25 -16.890625 Z M 8.078125 3.09375 L 8.90625 1.25 C 11.3125 2.175781 14.078125 2.863281 17.203125 3.3125 L 16.234375 6.359375 C 13.640625 5.804688 10.921875 4.71875 8.078125 3.09375 Z M 8.078125 3.09375 "/></g></g></g><g fill="#292828" fill-opacity="1"><g transform="translate(266.857171, 324.646133)"><g><path d="M 17.84375 -20.96875 L 17.84375 -8.078125 C 17.84375 -5.003906 17.269531 -2.820312 16.125 -1.53125 C 14.976562 -0.25 13.015625 0.390625 10.234375 0.390625 C 7.378906 0.390625 5.359375 -0.25 4.171875 -1.53125 C 2.992188 -2.820312 2.40625 -5.003906 2.40625 -8.078125 L 2.40625 -20.96875 L 5.4375 -20.96875 L 5.4375 -8.078125 C 5.4375 -5.929688 5.78125 -4.429688 6.46875 -3.578125 C 7.15625 -2.734375 8.375 -2.3125 10.125 -2.3125 C 11.84375 -2.3125 13.050781 -2.734375 13.75 -3.578125 C 14.445312 -4.429688 14.796875 -5.929688 14.796875 -8.078125 L 14.796875 -20.96875 Z M 17.84375 -20.96875 "/></g></g></g><g fill="#292828" fill-opacity="1"><g transform="translate(288.483094, 324.646133)"><g><path d="M 5.59375 0 L 2.546875 0 L 2.546875 -20.96875 L 5.59375 -20.96875 Z M 5.59375 0 "/></g></g></g></svg>