<svg xmlns="http://www.w3.org/2000/svg" xmlns:xlink="http://www.w3.org/1999/xlink" width="500" zoomAndPan="magnify" viewBox="0 0 375 131.249995" height="175" preserveAspectRatio="xMidYMid meet" version="1.0"><defs><g/><clipPath id="id1"><path d="M 20.011719 28.46875 L 82.050781 28.46875 L 82.050781 96.015625 L 20.011719 96.015625 Z M 20.011719 28.46875 " clip-rule="nonzero"/></clipPath><clipPath id="id2"><path d="M 24.367188 33.234375 L 78.402344 33.234375 L 78.402344 91.832031 L 24.367188 91.832031 Z M 24.367188 33.234375 " clip-rule="nonzero"/></clipPath><clipPath id="id3"><path d="M 39.222656 9.695312 L 62.242188 9.695312 L 62.242188 56.738281 L 39.222656 56.738281 Z M 39.222656 9.695312 " clip-rule="nonzero"/></clipPath><clipPath id="id4"><path d="M 44.050781 17.960938 L 58.066406 17.960938 L 58.066406 54.996094 L 44.050781 54.996094 Z M 44.050781 17.960938 " clip-rule="nonzero"/></clipPath></defs><g clip-path="url(#id1)"><path fill="#2f323f" d="M 54.917969 34.464844 C 52.421875 33.003906 49.636719 33.003906 47.140625 34.464844 L 28.808594 44.992188 C 26.3125 46.453125 24.996094 48.792969 24.996094 51.71875 L 24.996094 72.765625 C 24.996094 75.695312 26.3125 78.03125 28.808594 79.496094 L 47.140625 90.019531 C 49.636719 91.484375 52.421875 91.484375 54.917969 90.019531 L 73.246094 79.496094 C 75.742188 78.03125 77.058594 75.695312 77.058594 72.765625 L 77.058594 51.71875 C 77.058594 48.792969 75.742188 46.453125 73.246094 44.992188 Z M 75.742188 40.75 C 79.699219 43.089844 82.046875 47.035156 82.046875 51.71875 L 82.046875 72.765625 C 82.046875 77.449219 79.699219 81.398438 75.742188 83.734375 L 57.40625 94.257812 C 53.449219 96.597656 48.605469 96.597656 44.648438 94.257812 L 26.3125 83.734375 C 22.355469 81.398438 20.011719 77.449219 20.011719 72.765625 L 20.011719 51.71875 C 20.011719 47.035156 22.355469 43.089844 26.3125 40.75 L 44.648438 30.226562 C 48.605469 27.882812 53.449219 27.882812 57.40625 30.226562 L 75.742188 40.75 " fill-opacity="1" fill-rule="nonzero"/></g><g clip-path="url(#id2)"><path fill="#2f323f" d="M 54.769531 38.4375 C 52.59375 37.167969 50.167969 37.167969 47.996094 38.4375 L 32.03125 47.566406 C 29.859375 48.835938 28.710938 50.867188 28.710938 53.402344 L 28.710938 71.664062 C 28.710938 74.203125 29.859375 76.230469 32.03125 77.5 L 47.996094 86.628906 C 50.167969 87.898438 52.59375 87.898438 54.769531 86.628906 L 70.734375 77.5 C 72.90625 76.230469 74.054688 74.203125 74.054688 71.664062 L 74.054688 53.402344 C 74.054688 50.867188 72.90625 48.835938 70.734375 47.566406 Z M 72.90625 43.890625 C 76.355469 45.917969 78.398438 49.339844 78.398438 53.402344 L 78.398438 71.664062 C 78.398438 75.726562 76.355469 79.148438 72.90625 81.179688 L 56.9375 90.308594 C 53.492188 92.335938 49.273438 92.335938 45.828125 90.308594 L 29.859375 81.179688 C 26.410156 79.148438 24.367188 75.726562 24.367188 71.664062 L 24.367188 53.402344 C 24.367188 49.339844 26.410156 45.917969 29.859375 43.890625 L 45.828125 34.761719 C 49.273438 32.726562 53.492188 32.726562 56.9375 34.761719 L 72.90625 43.890625 " fill-opacity="1" fill-rule="nonzero"/></g><g clip-path="url(#id3)"><path fill="#ffffff" d="M 39.222656 18.964844 C 39.222656 13.847656 44.375 9.699219 50.730469 9.699219 C 57.089844 9.699219 62.242188 13.847656 62.242188 18.964844 L 62.242188 47.46875 C 62.242188 52.585938 57.089844 56.734375 50.730469 56.734375 C 44.375 56.734375 39.222656 52.585938 39.222656 47.46875 L 39.222656 18.964844 " fill-opacity="1" fill-rule="nonzero"/></g><g clip-path="url(#id4)"><path fill="#1ea589" d="M 44.050781 25.261719 C 44.050781 21.234375 47.1875 17.96875 51.058594 17.96875 C 54.929688 17.96875 58.066406 21.234375 58.066406 25.261719 L 58.066406 47.695312 C 58.066406 51.722656 54.929688 54.988281 51.058594 54.988281 C 47.1875 54.988281 44.050781 51.722656 44.050781 47.695312 L 44.050781 25.261719 " fill-opacity="1" fill-rule="nonzero"/></g><g fill="#2f323f" fill-opacity="1"><g transform="translate(101.926779, 82.3148)"><g><path d="M 45.890625 0 L 5.859375 0 L 5.859375 -42 L 45.890625 -42 C 48.648438 -42 51.007812 -41.019531 52.96875 -39.0625 C 54.925781 -37.113281 55.90625 -34.765625 55.90625 -32.015625 L 55.90625 -27.671875 C 55.90625 -25.117188 55.054688 -22.894531 53.359375 -21 C 55.054688 -19.125 55.90625 -16.910156 55.90625 -14.359375 L 55.90625 -10.015625 C 55.90625 -7.265625 54.925781 -4.90625 52.96875 -2.9375 C 51.007812 -0.976562 48.648438 0 45.890625 0 Z M 45.984375 -24.34375 C 46.898438 -24.394531 47.671875 -24.738281 48.296875 -25.375 C 48.921875 -26.007812 49.234375 -26.773438 49.234375 -27.671875 L 49.234375 -32.015625 C 49.234375 -32.929688 48.90625 -33.71875 48.25 -34.375 C 47.59375 -35.03125 46.804688 -35.359375 45.890625 -35.359375 L 12.53125 -35.359375 L 12.53125 -24.34375 Z M 45.890625 -6.671875 C 46.804688 -6.671875 47.59375 -7 48.25 -7.65625 C 48.90625 -8.3125 49.234375 -9.097656 49.234375 -10.015625 L 49.234375 -14.359375 C 49.234375 -15.253906 48.921875 -16.019531 48.296875 -16.65625 C 47.671875 -17.289062 46.898438 -17.625 45.984375 -17.65625 L 12.53125 -17.65625 L 12.53125 -6.671875 Z M 45.890625 -6.671875 "/></g></g></g><g fill="#2f323f" fill-opacity="1"><g transform="translate(162.207281, 82.3148)"><g><path d="M 41.09375 0 C 44.78125 0 47.925781 -1.300781 50.53125 -3.90625 C 53.144531 -6.507812 54.453125 -9.660156 54.453125 -13.359375 L 54.453125 -28.671875 C 54.453125 -32.347656 53.144531 -35.488281 50.53125 -38.09375 C 47.925781 -40.695312 44.78125 -42 41.09375 -42 L 17.75 -42 C 14.0625 -42 10.910156 -40.695312 8.296875 -38.09375 C 5.691406 -35.488281 4.390625 -32.347656 4.390625 -28.671875 L 4.390625 -13.359375 C 4.390625 -9.660156 5.691406 -6.507812 8.296875 -3.90625 C 10.910156 -1.300781 14.0625 0 17.75 0 Z M 41.09375 -6.671875 L 17.75 -6.671875 C 15.894531 -6.671875 14.316406 -7.320312 13.015625 -8.625 C 11.722656 -9.925781 11.078125 -11.503906 11.078125 -13.359375 L 11.078125 -28.671875 C 11.078125 -30.503906 11.722656 -32.078125 13.015625 -33.390625 C 14.316406 -34.703125 15.894531 -35.359375 17.75 -35.359375 L 41.09375 -35.359375 C 42.925781 -35.359375 44.492188 -34.703125 45.796875 -33.390625 C 47.109375 -32.078125 47.765625 -30.503906 47.765625 -28.671875 L 47.765625 -13.359375 C 47.765625 -11.503906 47.109375 -9.925781 45.796875 -8.625 C 44.492188 -7.320312 42.925781 -6.671875 41.09375 -6.671875 Z M 41.09375 -6.671875 "/></g></g></g><g fill="#2f323f" fill-opacity="1"><g transform="translate(221.023953, 82.3148)"><g><path d="M 26.5625 0 L 19.890625 0 L 19.890625 -35.359375 L 0.875 -35.359375 L 0.875 -42 L 45.609375 -42 L 45.609375 -35.359375 L 26.5625 -35.359375 Z M 26.5625 0 "/></g></g></g><g fill="#1ea589" fill-opacity="1"><g transform="translate(255.110661, 81.292961)"><g><path d="M 21.046875 -2.453125 L 21.046875 0 L 2.3125 0 L 2.3125 -2.453125 L 17.53125 -19.9375 L 2.484375 -19.9375 L 2.484375 -22.328125 L 20.859375 -22.328125 L 20.859375 -19.9375 L 5.671875 -2.453125 Z M 21.046875 -2.453125 "/></g></g></g><g fill="#1ea589" fill-opacity="1"><g transform="translate(278.459964, 81.292961)"><g><path d="M 16.984375 -9.734375 L 5.8125 -9.734375 C 6 -6.785156 6.675781 -4.753906 7.84375 -3.640625 C 9.007812 -2.535156 10.914062 -1.984375 13.5625 -1.984375 C 15.875 -1.984375 18.441406 -2.164062 21.265625 -2.53125 L 21.59375 -0.546875 C 19.6875 0.179688 16.875 0.546875 13.15625 0.546875 C 9.394531 0.546875 6.722656 -0.347656 5.140625 -2.140625 C 3.554688 -3.941406 2.765625 -6.984375 2.765625 -11.265625 C 2.765625 -15.566406 3.53125 -18.585938 5.0625 -20.328125 C 6.601562 -22.066406 9.175781 -22.9375 12.78125 -22.9375 C 15.945312 -22.9375 18.285156 -22.359375 19.796875 -21.203125 C 21.304688 -20.046875 22.070312 -18.300781 22.09375 -15.96875 C 22.15625 -11.8125 20.453125 -9.734375 16.984375 -9.734375 Z M 5.8125 -12.046875 L 16.28125 -12.046875 C 18.25 -12.046875 19.203125 -13.335938 19.140625 -15.921875 C 19.117188 -17.484375 18.613281 -18.617188 17.625 -19.328125 C 16.644531 -20.035156 15.078125 -20.390625 12.921875 -20.390625 C 10.304688 -20.390625 8.472656 -19.78125 7.421875 -18.5625 C 6.378906 -17.351562 5.84375 -15.179688 5.8125 -12.046875 Z M 5.8125 -12.046875 "/></g></g></g><g fill="#1ea589" fill-opacity="1"><g transform="translate(303.101321, 81.292961)"><g><path d="M 17.296875 -22.9375 L 16.9375 -20.15625 L 15.828125 -20.15625 C 14.535156 -20.15625 13.226562 -19.882812 11.90625 -19.34375 C 10.582031 -18.8125 8.890625 -17.929688 6.828125 -16.703125 L 6.828125 0 L 3.875 0 L 3.875 -22.328125 L 6.140625 -22.328125 L 6.453125 -18.640625 C 10.117188 -21.503906 13.410156 -22.9375 16.328125 -22.9375 Z M 17.296875 -22.9375 "/></g></g></g><g fill="#1ea589" fill-opacity="1"><g transform="translate(321.282407, 81.292961)"><g><path d="M 5.09375 -20.28125 C 6.644531 -22.050781 9.296875 -22.9375 13.046875 -22.9375 C 16.804688 -22.9375 19.453125 -22.050781 20.984375 -20.28125 C 22.523438 -18.507812 23.296875 -15.46875 23.296875 -11.15625 C 23.296875 -6.851562 22.523438 -3.828125 20.984375 -2.078125 C 19.453125 -0.328125 16.804688 0.546875 13.046875 0.546875 C 9.296875 0.546875 6.644531 -0.332031 5.09375 -2.09375 C 3.539062 -3.863281 2.765625 -6.890625 2.765625 -11.171875 C 2.765625 -15.472656 3.539062 -18.507812 5.09375 -20.28125 Z M 18.6875 -18.40625 C 17.644531 -19.726562 15.769531 -20.390625 13.0625 -20.390625 C 10.351562 -20.390625 8.472656 -19.726562 7.421875 -18.40625 C 6.378906 -17.082031 5.859375 -14.664062 5.859375 -11.15625 C 5.859375 -7.65625 6.378906 -5.242188 7.421875 -3.921875 C 8.472656 -2.597656 10.351562 -1.9375 13.0625 -1.9375 C 15.769531 -1.9375 17.644531 -2.597656 18.6875 -3.921875 C 19.726562 -5.242188 20.25 -7.65625 20.25 -11.15625 C 20.25 -14.664062 19.726562 -17.082031 18.6875 -18.40625 Z M 18.6875 -18.40625 "/></g></g></g><g fill="#2f323f" fill-opacity="1"><g transform="translate(143.819869, 112.478749)"><g><path d="M 2.0625 -6.765625 L 2.15625 -5.6875 C 2.519531 -6.070312 2.957031 -6.375 3.46875 -6.59375 C 3.976562 -6.820312 4.476562 -6.9375 4.96875 -6.9375 C 5.769531 -6.9375 6.351562 -6.640625 6.71875 -6.046875 C 7.09375 -5.453125 7.28125 -4.550781 7.28125 -3.34375 C 7.28125 -2.070312 7.078125 -1.164062 6.671875 -0.625 C 6.265625 -0.09375 5.613281 0.171875 4.71875 0.171875 C 3.832031 0.171875 3 -0.0625 2.21875 -0.53125 C 2.25 -0.21875 2.265625 0.234375 2.265625 0.828125 L 2.265625 2.796875 L 1.078125 2.796875 L 1.078125 -6.765625 Z M 2.265625 -4.859375 L 2.265625 -1.28125 C 3.210938 -1 3.9375 -0.859375 4.4375 -0.859375 C 5.050781 -0.859375 5.476562 -1.03125 5.71875 -1.375 C 5.957031 -1.71875 6.078125 -2.375 6.078125 -3.34375 C 6.078125 -4.289062 5.960938 -4.953125 5.734375 -5.328125 C 5.503906 -5.710938 5.117188 -5.90625 4.578125 -5.90625 C 4.222656 -5.90625 3.867188 -5.820312 3.515625 -5.65625 C 3.171875 -5.5 2.753906 -5.234375 2.265625 -4.859375 Z M 2.265625 -4.859375 "/></g></g></g><g fill="#2f323f" fill-opacity="1"><g transform="translate(151.886858, 112.478749)"><g><path d="M 3.953125 -6.9375 C 5.117188 -6.9375 5.941406 -6.664062 6.421875 -6.125 C 6.898438 -5.59375 7.140625 -4.675781 7.140625 -3.375 C 7.140625 -2.082031 6.898438 -1.164062 6.421875 -0.625 C 5.941406 -0.0820312 5.117188 0.1875 3.953125 0.1875 C 2.796875 0.1875 1.972656 -0.0820312 1.484375 -0.625 C 1.003906 -1.164062 0.765625 -2.082031 0.765625 -3.375 C 0.765625 -4.675781 1.003906 -5.59375 1.484375 -6.125 C 1.972656 -6.664062 2.796875 -6.9375 3.953125 -6.9375 Z M 5.484375 -5.390625 C 5.203125 -5.753906 4.691406 -5.9375 3.953125 -5.9375 C 3.210938 -5.9375 2.703125 -5.753906 2.421875 -5.390625 C 2.140625 -5.035156 2 -4.363281 2 -3.375 C 2 -2.394531 2.140625 -1.722656 2.421875 -1.359375 C 2.703125 -1.003906 3.210938 -0.828125 3.953125 -0.828125 C 4.691406 -0.828125 5.203125 -1.003906 5.484375 -1.359375 C 5.765625 -1.722656 5.90625 -2.394531 5.90625 -3.375 C 5.90625 -4.363281 5.765625 -5.035156 5.484375 -5.390625 Z M 5.484375 -5.390625 "/></g></g></g><g fill="#2f323f" fill-opacity="1"><g transform="translate(159.786948, 112.478749)"><g><path d="M 11.109375 -6.765625 L 9.140625 -0.328125 C 9.078125 -0.109375 8.921875 0 8.671875 0 L 7.609375 0 C 7.492188 0 7.390625 -0.03125 7.296875 -0.09375 C 7.210938 -0.164062 7.160156 -0.257812 7.140625 -0.375 L 6.03125 -4.984375 C 6.007812 -5.109375 5.972656 -5.285156 5.921875 -5.515625 C 5.878906 -5.753906 5.84375 -5.929688 5.8125 -6.046875 L 5.640625 -6.046875 L 5.40625 -4.984375 L 4.3125 -0.375 C 4.25 -0.125 4.09375 0 3.84375 0 L 2.78125 0 C 2.53125 0 2.378906 -0.109375 2.328125 -0.328125 L 0.34375 -6.765625 L 1.578125 -6.765625 L 2.96875 -1.78125 C 3.050781 -1.488281 3.128906 -1.148438 3.203125 -0.765625 L 3.375 -0.765625 L 3.625 -1.78125 L 4.75 -6.390625 C 4.800781 -6.640625 4.953125 -6.765625 5.203125 -6.765625 L 6.265625 -6.765625 C 6.503906 -6.765625 6.65625 -6.640625 6.71875 -6.390625 L 7.828125 -1.78125 C 7.847656 -1.675781 7.882812 -1.507812 7.9375 -1.28125 C 8 -1.0625 8.039062 -0.890625 8.0625 -0.765625 L 8.25 -0.765625 C 8.257812 -0.804688 8.285156 -0.953125 8.328125 -1.203125 C 8.378906 -1.453125 8.429688 -1.644531 8.484375 -1.78125 L 9.890625 -6.765625 Z M 11.109375 -6.765625 "/></g></g></g><g fill="#2f323f" fill-opacity="1"><g transform="translate(171.247637, 112.478749)"><g><path d="M 5.15625 -2.8125 L 2 -2.8125 C 2.0625 -2.03125 2.25 -1.503906 2.5625 -1.234375 C 2.882812 -0.960938 3.410156 -0.828125 4.140625 -0.828125 C 4.910156 -0.828125 5.695312 -0.882812 6.5 -1 L 6.625 -0.203125 C 6.019531 0.046875 5.140625 0.171875 3.984375 0.171875 C 2.816406 0.171875 1.984375 -0.0976562 1.484375 -0.640625 C 0.992188 -1.179688 0.75 -2.101562 0.75 -3.40625 C 0.75 -4.71875 0.988281 -5.632812 1.46875 -6.15625 C 1.957031 -6.675781 2.753906 -6.9375 3.859375 -6.9375 C 4.867188 -6.9375 5.601562 -6.753906 6.0625 -6.390625 C 6.53125 -6.023438 6.765625 -5.472656 6.765625 -4.734375 C 6.785156 -3.453125 6.25 -2.8125 5.15625 -2.8125 Z M 1.984375 -3.734375 L 4.859375 -3.734375 C 5.347656 -3.734375 5.59375 -4.066406 5.59375 -4.734375 C 5.582031 -5.160156 5.453125 -5.46875 5.203125 -5.65625 C 4.953125 -5.84375 4.523438 -5.9375 3.921875 -5.9375 C 3.203125 -5.9375 2.703125 -5.78125 2.421875 -5.46875 C 2.148438 -5.15625 2.003906 -4.578125 1.984375 -3.734375 Z M 1.984375 -3.734375 "/></g></g></g><g fill="#2f323f" fill-opacity="1"><g transform="translate(178.716553, 112.478749)"><g><path d="M 5.328125 -6.9375 L 5.1875 -5.828125 L 4.796875 -5.828125 C 4.453125 -5.828125 4.097656 -5.757812 3.734375 -5.625 C 3.367188 -5.488281 2.878906 -5.269531 2.265625 -4.96875 L 2.265625 0 L 1.078125 0 L 1.078125 -6.765625 L 2 -6.765625 L 2.125 -5.703125 C 3.175781 -6.523438 4.140625 -6.9375 5.015625 -6.9375 Z M 5.328125 -6.9375 "/></g></g></g><g fill="#2f323f" fill-opacity="1"><g transform="translate(184.293891, 112.478749)"><g><path d="M 5.15625 -2.8125 L 2 -2.8125 C 2.0625 -2.03125 2.25 -1.503906 2.5625 -1.234375 C 2.882812 -0.960938 3.410156 -0.828125 4.140625 -0.828125 C 4.910156 -0.828125 5.695312 -0.882812 6.5 -1 L 6.625 -0.203125 C 6.019531 0.046875 5.140625 0.171875 3.984375 0.171875 C 2.816406 0.171875 1.984375 -0.0976562 1.484375 -0.640625 C 0.992188 -1.179688 0.75 -2.101562 0.75 -3.40625 C 0.75 -4.71875 0.988281 -5.632812 1.46875 -6.15625 C 1.957031 -6.675781 2.753906 -6.9375 3.859375 -6.9375 C 4.867188 -6.9375 5.601562 -6.753906 6.0625 -6.390625 C 6.53125 -6.023438 6.765625 -5.472656 6.765625 -4.734375 C 6.785156 -3.453125 6.25 -2.8125 5.15625 -2.8125 Z M 1.984375 -3.734375 L 4.859375 -3.734375 C 5.347656 -3.734375 5.59375 -4.066406 5.59375 -4.734375 C 5.582031 -5.160156 5.453125 -5.46875 5.203125 -5.65625 C 4.953125 -5.84375 4.523438 -5.9375 3.921875 -5.9375 C 3.203125 -5.9375 2.703125 -5.78125 2.421875 -5.46875 C 2.148438 -5.15625 2.003906 -4.578125 1.984375 -3.734375 Z M 1.984375 -3.734375 "/></g></g></g><g fill="#2f323f" fill-opacity="1"><g transform="translate(191.762807, 112.478749)"><g><path d="M 6.875 -9.734375 L 6.875 0 L 5.953125 0 L 5.84375 -0.96875 C 4.976562 -0.207031 4.082031 0.171875 3.15625 0.171875 C 2.320312 0.171875 1.71875 -0.117188 1.34375 -0.703125 C 0.96875 -1.296875 0.78125 -2.195312 0.78125 -3.40625 C 0.78125 -4.695312 0.984375 -5.609375 1.390625 -6.140625 C 1.796875 -6.671875 2.445312 -6.9375 3.34375 -6.9375 C 4.21875 -6.9375 5.019531 -6.726562 5.75 -6.3125 C 5.707031 -6.71875 5.6875 -7.160156 5.6875 -7.640625 L 5.6875 -9.734375 Z M 5.6875 -1.796875 L 5.6875 -5.53125 C 4.800781 -5.78125 4.109375 -5.90625 3.609375 -5.90625 C 3.015625 -5.90625 2.59375 -5.734375 2.34375 -5.390625 C 2.101562 -5.046875 1.984375 -4.382812 1.984375 -3.40625 C 1.984375 -2.4375 2.101562 -1.769531 2.34375 -1.40625 C 2.582031 -1.039062 2.984375 -0.859375 3.546875 -0.859375 C 3.898438 -0.859375 4.21875 -0.925781 4.5 -1.0625 C 4.789062 -1.195312 5.1875 -1.441406 5.6875 -1.796875 Z M 5.6875 -1.796875 "/></g></g></g><g fill="#2f323f" fill-opacity="1"><g transform="translate(199.732436, 112.478749)"><g/></g></g><g fill="#2f323f" fill-opacity="1"><g transform="translate(202.83406, 112.478749)"><g><path d="M 2.234375 -9.734375 L 2.234375 -7.203125 C 2.234375 -6.554688 2.191406 -6.054688 2.109375 -5.703125 C 2.921875 -6.523438 3.796875 -6.9375 4.734375 -6.9375 C 5.578125 -6.9375 6.191406 -6.660156 6.578125 -6.109375 C 6.972656 -5.554688 7.171875 -4.65625 7.171875 -3.40625 C 7.171875 -2.1875 6.945312 -1.285156 6.5 -0.703125 C 6.0625 -0.117188 5.285156 0.171875 4.171875 0.171875 C 3.015625 0.171875 1.976562 0.0078125 1.0625 -0.3125 L 1.0625 -9.734375 Z M 2.234375 -4.90625 L 2.234375 -1.078125 C 2.859375 -0.898438 3.492188 -0.816406 4.140625 -0.828125 C 4.796875 -0.835938 5.257812 -1.03125 5.53125 -1.40625 C 5.800781 -1.78125 5.941406 -2.445312 5.953125 -3.40625 C 5.941406 -4.363281 5.820312 -5.019531 5.59375 -5.375 C 5.375 -5.726562 4.945312 -5.90625 4.3125 -5.90625 C 3.988281 -5.90625 3.675781 -5.828125 3.375 -5.671875 C 3.070312 -5.515625 2.691406 -5.257812 2.234375 -4.90625 Z M 2.234375 -4.90625 "/></g></g></g><g fill="#2f323f" fill-opacity="1"><g transform="translate(210.761952, 112.478749)"><g><path d="M 7.09375 -6.765625 L 4.375 0.375 C 3.78125 1.96875 2.796875 2.796875 1.421875 2.859375 L 1.3125 2.078125 C 1.832031 1.910156 2.242188 1.679688 2.546875 1.390625 C 2.847656 1.097656 3.09375 0.734375 3.28125 0.296875 L 3.390625 0 L 3.125 0 C 2.90625 0 2.769531 -0.101562 2.71875 -0.3125 L 0.25 -6.765625 L 1.515625 -6.765625 L 3.3125 -1.71875 C 3.4375 -1.34375 3.519531 -1.070312 3.5625 -0.90625 L 3.75 -0.90625 C 3.820312 -1.09375 3.921875 -1.363281 4.046875 -1.71875 L 5.8125 -6.765625 Z M 7.09375 -6.765625 "/></g></g></g><g fill="#000000" fill-opacity="1"><g transform="translate(218.41568, 112.712777)"><g><path d="M 13.828125 0 L 11.265625 0 L 9.859375 -5.140625 C 9.503906 -6.242188 8.8125 -6.796875 7.78125 -6.796875 L 4.375 -6.8125 L 4.375 0 L 2.015625 0 L 2.015625 -16.5 C 3.367188 -16.644531 5.289062 -16.71875 7.78125 -16.71875 C 9.769531 -16.71875 11.175781 -16.375 12 -15.6875 C 12.820312 -15.007812 13.234375 -13.757812 13.234375 -11.9375 C 13.234375 -10.613281 12.992188 -9.613281 12.515625 -8.9375 C 12.046875 -8.269531 11.269531 -7.867188 10.1875 -7.734375 L 10.1875 -7.609375 C 11.257812 -7.285156 11.953125 -6.488281 12.265625 -5.21875 Z M 4.375 -8.84375 L 7.734375 -8.84375 C 8.910156 -8.863281 9.71875 -9.078125 10.15625 -9.484375 C 10.59375 -9.890625 10.8125 -10.660156 10.8125 -11.796875 C 10.8125 -12.910156 10.59375 -13.664062 10.15625 -14.0625 C 9.71875 -14.46875 8.910156 -14.671875 7.734375 -14.671875 C 6.097656 -14.671875 4.976562 -14.660156 4.375 -14.640625 Z M 4.375 -8.84375 "/></g></g></g><g fill="#000000" fill-opacity="1"><g transform="translate(233.239374, 112.712777)"><g><path d="M 1.890625 -9.734375 L 1.671875 -11.4375 C 3.773438 -11.800781 5.664062 -11.984375 7.34375 -11.984375 C 8.757812 -11.984375 9.800781 -11.695312 10.46875 -11.125 C 11.144531 -10.550781 11.484375 -9.554688 11.484375 -8.140625 L 11.484375 0 L 9.671875 0 L 9.40625 -1.84375 C 8.0625 -0.46875 6.503906 0.21875 4.734375 0.21875 C 3.648438 0.21875 2.785156 -0.0664062 2.140625 -0.640625 C 1.492188 -1.210938 1.171875 -2.023438 1.171875 -3.078125 L 1.171875 -4.3125 C 1.171875 -5.226562 1.457031 -5.941406 2.03125 -6.453125 C 2.601562 -6.960938 3.414062 -7.21875 4.46875 -7.21875 L 9.15625 -7.21875 L 9.15625 -8.140625 C 9.144531 -8.847656 8.976562 -9.335938 8.65625 -9.609375 C 8.34375 -9.878906 7.738281 -10.015625 6.84375 -10.015625 C 5.96875 -10.015625 4.316406 -9.921875 1.890625 -9.734375 Z M 3.515625 -4 L 3.515625 -3.375 C 3.515625 -2.800781 3.648438 -2.382812 3.921875 -2.125 C 4.191406 -1.875 4.625 -1.75 5.21875 -1.75 C 6.601562 -1.75 7.914062 -2.289062 9.15625 -3.375 L 9.15625 -5.484375 L 4.90625 -5.484375 C 4.394531 -5.460938 4.035156 -5.328125 3.828125 -5.078125 C 3.617188 -4.835938 3.515625 -4.476562 3.515625 -4 Z M 3.515625 -4 "/></g></g></g><g fill="#000000" fill-opacity="1"><g transform="translate(246.413333, 112.712777)"><g><path d="M 2.484375 -16.65625 L 3.59375 -16.65625 C 4.039062 -16.65625 4.265625 -16.429688 4.265625 -15.984375 L 4.265625 -14.640625 C 4.265625 -14.179688 4.039062 -13.953125 3.59375 -13.953125 L 2.484375 -13.953125 C 2.035156 -13.953125 1.8125 -14.179688 1.8125 -14.640625 L 1.8125 -15.984375 C 1.8125 -16.429688 2.035156 -16.65625 2.484375 -16.65625 Z M 4.1875 0 L 1.890625 0 L 1.890625 -11.671875 L 4.1875 -11.671875 Z M 4.1875 0 "/></g></g></g><g fill="#000000" fill-opacity="1"><g transform="translate(252.486272, 112.712777)"><g><path d="M 4.140625 -16.75 L 4.140625 -3.375 C 4.117188 -2.875 4.234375 -2.5 4.484375 -2.25 C 4.742188 -2.007812 5.128906 -1.890625 5.640625 -1.890625 L 6.71875 -1.890625 L 6.984375 -0.09375 C 6.523438 0.113281 5.785156 0.21875 4.765625 0.21875 C 3.847656 0.21875 3.125 -0.046875 2.59375 -0.578125 C 2.070312 -1.117188 1.8125 -1.875 1.8125 -2.84375 L 1.8125 -16.75 Z M 4.140625 -16.75 "/></g></g></g><g fill="#000000" fill-opacity="1"><g transform="translate(259.706839, 112.712777)"><g><path d="M 12.609375 -2.109375 L 12.84375 -0.28125 C 11.519531 0.09375 9.882812 0.28125 7.9375 0.28125 C 5.53125 0.28125 3.835938 -0.351562 2.859375 -1.625 C 1.890625 -2.90625 1.40625 -5.113281 1.40625 -8.25 C 1.40625 -11.394531 1.890625 -13.601562 2.859375 -14.875 C 3.835938 -16.15625 5.53125 -16.796875 7.9375 -16.796875 C 9.664062 -16.796875 11.191406 -16.632812 12.515625 -16.3125 L 12.265625 -14.46875 C 10.992188 -14.601562 9.550781 -14.671875 7.9375 -14.671875 C 6.425781 -14.671875 5.378906 -14.207031 4.796875 -13.28125 C 4.210938 -12.351562 3.921875 -10.675781 3.921875 -8.25 C 3.921875 -5.820312 4.210938 -4.144531 4.796875 -3.21875 C 5.378906 -2.300781 6.425781 -1.84375 7.9375 -1.84375 C 9.96875 -1.84375 11.523438 -1.929688 12.609375 -2.109375 Z M 12.609375 -2.109375 "/></g></g></g><g fill="#000000" fill-opacity="1"><g transform="translate(273.382906, 112.712777)"><g><path d="M 2.515625 -10.5625 C 3.359375 -11.507812 4.789062 -11.984375 6.8125 -11.984375 C 8.84375 -11.984375 10.28125 -11.507812 11.125 -10.5625 C 11.96875 -9.625 12.390625 -8.039062 12.390625 -5.8125 C 12.390625 -3.582031 11.96875 -2.003906 11.125 -1.078125 C 10.28125 -0.148438 8.84375 0.3125 6.8125 0.3125 C 4.789062 0.3125 3.359375 -0.148438 2.515625 -1.078125 C 1.671875 -2.003906 1.25 -3.582031 1.25 -5.8125 C 1.25 -8.039062 1.671875 -9.625 2.515625 -10.5625 Z M 9.296875 -9.125 C 8.859375 -9.71875 8.03125 -10.015625 6.8125 -10.015625 C 5.601562 -10.015625 4.773438 -9.71875 4.328125 -9.125 C 3.878906 -8.539062 3.65625 -7.4375 3.65625 -5.8125 C 3.65625 -4.195312 3.878906 -3.09375 4.328125 -2.5 C 4.773438 -1.914062 5.601562 -1.625 6.8125 -1.625 C 8.03125 -1.625 8.859375 -1.914062 9.296875 -2.5 C 9.742188 -3.09375 9.96875 -4.195312 9.96875 -5.8125 C 9.96875 -7.4375 9.742188 -8.539062 9.296875 -9.125 Z M 9.296875 -9.125 "/></g></g></g><g fill="#000000" fill-opacity="1"><g transform="translate(287.011132, 112.712777)"><g><path d="M 10.140625 0 L 9.953125 -1.609375 C 8.453125 -0.347656 6.921875 0.28125 5.359375 0.28125 C 3.921875 0.28125 2.878906 -0.226562 2.234375 -1.25 C 1.585938 -2.28125 1.265625 -3.828125 1.265625 -5.890625 C 1.265625 -8.117188 1.625 -9.691406 2.34375 -10.609375 C 3.0625 -11.523438 4.1875 -11.984375 5.71875 -11.984375 C 7.1875 -11.984375 8.523438 -11.632812 9.734375 -10.9375 C 9.671875 -11.625 9.640625 -12.390625 9.640625 -13.234375 L 9.640625 -16.75 L 11.96875 -16.75 L 11.96875 0 Z M 9.640625 -3.1875 L 9.640625 -9.40625 C 8.191406 -9.78125 7.078125 -9.96875 6.296875 -9.96875 C 5.304688 -9.96875 4.617188 -9.691406 4.234375 -9.140625 C 3.847656 -8.597656 3.65625 -7.519531 3.65625 -5.90625 C 3.65625 -4.300781 3.84375 -3.203125 4.21875 -2.609375 C 4.59375 -2.015625 5.234375 -1.71875 6.140625 -1.71875 C 6.734375 -1.71875 7.253906 -1.820312 7.703125 -2.03125 C 8.160156 -2.238281 8.804688 -2.625 9.640625 -3.1875 Z M 9.640625 -3.1875 "/></g></g></g><g fill="#000000" fill-opacity="1"><g transform="translate(300.758905, 112.712777)"><g><path d="M 8.921875 -4.71875 L 3.6875 -4.71875 C 3.789062 -3.5 4.101562 -2.679688 4.625 -2.265625 C 5.144531 -1.859375 5.992188 -1.65625 7.171875 -1.65625 C 8.210938 -1.65625 9.578125 -1.75 11.265625 -1.9375 L 11.484375 -0.40625 C 10.429688 0.0507812 8.890625 0.28125 6.859375 0.28125 C 4.816406 0.28125 3.367188 -0.175781 2.515625 -1.09375 C 1.671875 -2.019531 1.25 -3.609375 1.25 -5.859375 C 1.25 -8.117188 1.664062 -9.703125 2.5 -10.609375 C 3.332031 -11.523438 4.71875 -11.984375 6.65625 -11.984375 C 8.4375 -11.984375 9.734375 -11.65625 10.546875 -11 C 11.359375 -10.34375 11.765625 -9.363281 11.765625 -8.0625 C 11.765625 -5.832031 10.816406 -4.71875 8.921875 -4.71875 Z M 3.65625 -6.5 L 8.296875 -6.5 C 9.066406 -6.5 9.453125 -7.019531 9.453125 -8.0625 C 9.429688 -8.78125 9.222656 -9.285156 8.828125 -9.578125 C 8.441406 -9.867188 7.753906 -10.015625 6.765625 -10.015625 C 5.617188 -10.015625 4.820312 -9.769531 4.375 -9.28125 C 3.925781 -8.800781 3.6875 -7.875 3.65625 -6.5 Z M 3.65625 -6.5 "/></g></g></g></svg>